<?xml version="1.0" encoding="utf-8"?>
<!-- Generator: Adobe Illustrator 26.0.0, SVG Export Plug-In . SVG Version: 6.00 Build 0)  -->
<svg version="1.1" id="Layer_1" xmlns="http://www.w3.org/2000/svg" xmlns:xlink="http://www.w3.org/1999/xlink" x="0px" y="0px"
	 viewBox="0 0 1080 624.2" style="enable-background:new 0 0 1080 624.2;" xml:space="preserve">
<style type="text/css">
	.st0{fill:#FFFFFF;}
</style>
<path class="st0" d="M575.4,472.3c0.7,1.2,1,2.1,1.6,2.8c3.4,4.3,6.1,9.7,10.5,12.7c14.8,10.3,30.4,8.7,45.7,0.8
	c11.1-5.7,15.8-15.2,15.4-27.4c-0.3-9.1-6.9-12.9-14.8-8.3c-3.3,1.9-6.2,4.7-9.4,6.8c-4,2.7-8.1,5.4-12.4,7.6
	c-3.8,1.9-6.4,0.7-7.5-2.5c-2.4-6.9,1.1-13.5,8.1-15.2c2.2-0.5,4.4-0.7,6.6-1c8.9-1.2,17.6-2.8,25.3-7.8c9.5-6.2,12.7-17.2,8-27.4
	c-3.3-7.2-8.7-12.5-16-15.7c-14.9-6.5-35.8-1.2-47.6,12c-9.2,10.3-13.9,22.6-15.6,36.1c-0.2,1.8,0,3.7-2.9,3.4
	c-7.2-0.7-13.8,1.6-20.1,4.5c-6.8,3.1-13.4,6.7-20.5,10.3c-0.3-2.5-0.3-4.8-0.8-7c-1.6-8-2.4-16.3-5.2-23.9
	c-6.8-18.4-26.2-27.7-45.1-22.3c-11.8,3.4-20.1,11.4-26.8,21.3c-1.5,2.3-2.8,4.6-4.3,7c-2.4-9.8-4.9-19.3-7-28.8
	c-1.5-6.7-4.5-12.2-10.3-16c-14.8-9.8-38.3-6.5-51.7,7.2c-19.9,20.3-24,61.9-8.1,85.5c8.3,12.2,19.8,19.1,35,17.6
	c14.9-1.5,25.1-10.3,32.6-22.6c0.9-1.4,1.7-2.9,2.4-4c2.2,5,4.1,9.9,6.6,14.5c5.2,9.4,15,13.6,25.2,10.3c5.2-1.7,10.1-4.5,14.8-7.4
	c3.7-2.3,6.8-5.5,10.2-8.3c-0.2,2.3-0.9,4.2-2.2,5.7c-3.6,4.4-7.7,8.4-11.2,12.9c-14.1,18.7-22.6,39.8-24.8,63.2
	c-0.7,7.9-0.6,15.8,2.5,23.4c4.7,11.4,15.3,16.1,26.5,11.1c4-1.8,7.8-4.4,11-7.3c10.6-9.5,16.8-21.8,19.7-35.5
	c3.3-15.8,5.8-31.7,8.5-47.6c1.1-6.5,4.1-10.9,9.7-14.6C549.9,489.9,564.9,484.7,575.4,472.3z"/>
<path class="st0" d="M174.8,431.7c-0.4-0.6-1.1-1.7-1.8-2.7c-7.9-11.7-26.7-19.2-39.7-15.8c-9,2.4-14.4,9.4-14.7,19.8
	c-0.2,8.3,1.6,16.6,12.4,19c0.7,0.1,1.3,0.5,1.9,0.8c3,1.3,3.7,3.5,2.4,6.4c-1.8,4.1-5.3,5.5-9.3,6c-12.8,1.6-24.8-5.6-29.1-18.1
	c-6.4-18.5-0.8-34.4,11.7-48.4c7.2-8,16.4-13.2,26.6-16.7c4.8-1.6,9.2-3.8,12.3-8.1c8.6-12-1.2-28.3-10.7-32.8
	c-2.9-1.4-6.5-2.5-9.6-2c-5.7,0.9-11.8,1.9-16.6,4.7c-35.9,20.8-55.9,51.7-56.2,93.8c-0.2,30.8,19.1,56.8,48.1,64.7
	c23.1,6.4,44.5,2.4,62.2-14.6c4.3-4.1,7.4-9.6,10.6-13.8c3.4,4.1,6.4,9.6,10.9,13c14.6,10.9,30.3,9.6,46,2
	c10.5-5.1,15.6-13.9,16.3-25.3c0.3-4.4,0-8.9-4.3-11.5c-4.4-2.6-8.6-0.9-12.5,1.7c-2.9,2-5.4,4.3-8.3,6.3c-3.8,2.5-7.6,5.2-11.7,7.1
	c-4.1,1.9-6.6,0.6-7.7-2.9c-2.1-6.8,1.4-13.1,8.3-14.8c2.1-0.5,4.4-0.7,6.6-1c8.7-1.2,17.3-2.8,24.9-7.6c9.2-5.8,12.7-15.4,9.1-25.6
	c-3.1-8.8-9.3-14.7-17.8-18.2c-14.9-6.1-36-0.4-47.1,13.5C182.8,417.1,179.2,424.6,174.8,431.7z"/>
<path class="st0" d="M815.9,482.8c1.3,2,3.3,4.1,3.9,6.4c1.6,5.9,2.9,11.8,3.8,17.8c1.2,8.7,1.7,17.5,7.7,24.6
	c2.4,2.9,5.2,5.2,9.3,4.1c4.1-1,6-4.3,6.4-8c0.6-4.8,0.6-9.7,0.5-14.5c-0.4-12-0.9-24-1.4-35.7c3.2,3.4,6.1,7.5,10,10.1
	c14.7,9.9,29.9,8.5,45.1,1c11.5-5.7,16.4-15.3,16-27.8c-0.2-8.8-7-12.7-14.6-8.3c-3.2,1.9-6,4.5-9.1,6.6c-4.2,2.8-8.2,5.7-12.7,7.8
	c-5.1,2.4-7.9,0.2-8.3-5.4c-0.4-6.6,2.5-10.6,8.8-12.2c2-0.5,4.1-0.5,6.2-1c7.4-1.9,14.9-3.4,22-5.9c6.4-2.3,10.7-7.3,12.8-14
	c2.9-9.5-1.7-20.6-11.2-27.5c-11.8-8.6-29.4-8.4-43.6,0.6c-15.6,9.8-22.4,24.8-25.2,42.2c-0.7,4.4-0.8,9-1.2,13.7
	c-0.5-0.5-0.9-0.7-1.1-1c-5.9-9.3-12.6-11.7-22.2-6.8c-5.4,2.7-10,6.9-14.9,10.5c-0.9,0.7-1.8,1.4-3.1,2.5c0-1.6-0.1-2.5,0-3.3
	c0.8-10,1.5-20,2.5-29.9c1.4-13.7,3.3-27.3,4.5-41c0.8-8.9,1.5-18,1.2-26.9c-0.2-7.2-5.5-12.2-12.1-13.5c-6.2-1.2-12.8,1.7-15.9,8.1
	c-2.8,5.7-5.6,11.7-6.8,17.8c-3.8,19.8-7.2,39.6-10,59.5c-2.3,15.8-3.1,31.9-0.1,47.8c1.1,5.8,3,11.5,5.5,16.9
	c2.2,4.6,6.8,6.9,11.9,5.8c4.5-1,9.3-2.4,13.1-4.9C800.8,494.4,807.9,488.7,815.9,482.8z"/>
<path class="st0" d="M282,418.3c0.1,26.4,1.9,52.8,6.4,78.8c1.4,7.8,3.8,15.6,7,22.9c2.7,6.2,9.1,7,13.6,1.9
	c3.2-3.6,6.4-8.3,7.1-12.9c2.8-18.8,5.4-37.7,6.7-56.6c1.4-20.1,1.3-40.3,1.7-60.4c0.1-3.3,0.8-5.1,4.5-5.5c6.1-0.5,12.2-1,18.1-2.4
	c6.1-1.4,12.4-3.1,18-6.1c7.2-3.9,7.9-11.7,2-17.4c-2.6-2.6-5.9-4.5-9.2-6.3c-8.7-4.7-18.3-5.6-27.9-5.7c-4.7,0-7.2-1.8-8.2-6.3
	c-1.6-7-3.2-14.1-5.4-21c-1.6-5.1-3.6-10.2-6.4-14.8c-2.8-4.7-6.7-4.7-10.9-1.3c-6,4.8-8.9,11.4-10.3,18.5
	c-1.4,6.6-2.1,13.4-3.1,20.1c-0.4,2.6-1.6,4.2-4.3,4.8c-5.7,1.3-11.3,2.7-16.9,4.1c-3.4,0.8-6.8,1.4-10,2.7
	c-5.6,2.3-9.8,6.3-9.7,12.7c0,6.7,4.9,9.9,10.4,12.2c1.5,0.6,3.2,1.1,4.8,1.4c4.9,0.9,9.8,1.9,14.8,2.4c3.9,0.4,6.1,2.4,6.7,6.1
	c0.3,2.2,0.7,4.4,0.8,6.6C282,404.1,282,411.2,282,418.3z"/>
<path class="st0" d="M771,368.6c-0.1-0.7-0.3-1.8-0.6-2.8c-2.1-5.9-7-8.7-12.1-11.4c-9.3-4.9-19.4-5.5-29.6-5.9
	c-3.4-0.1-5.4-1.2-6.3-4.7c-1.8-7.3-3.5-14.6-5.7-21.7c-1.6-5.1-3.5-10.3-6.2-14.9c-3.2-5.4-7.4-6-11.6-1.5c-3.6,3.9-7,8.5-8.6,13.4
	c-2.3,7.2-3.2,14.9-4.2,22.4c-0.6,4.2-1.7,7-6.3,7.8c-7.3,1.4-14.6,3.1-21.9,4.9c-7.7,1.9-13.3,7.8-13.4,13.6
	c-0.1,5.8,5,11.3,13,13.3c5.8,1.4,11.7,2.3,17.6,3.2c3.3,0.5,5.5,2,5.9,5.3c0.5,4.1,1.1,8.3,0.9,12.4c-1.2,30.4,1.2,60.6,5.8,90.6
	c1.4,8.8,3.6,17.7,6.8,26c3.1,8,10,8.4,15.8,2.1c4.4-4.8,6.2-10.8,7.2-17c4.7-28.3,6.1-56.9,6.6-85.6c0.2-8.6,0.1-17.2,0.1-25.9
	c0-3.3,0.8-5.6,4.8-5.7c3.9-0.2,7.8-0.7,11.5-1.5c7.7-1.7,15.4-3.4,22.8-5.9C767.8,377.7,771,374.3,771,368.6z"/>
<path class="st0" d="M952.2,65.8c-0.8,3.2-2.1,5.7-1.9,8c0.5,4.6,0.8,9-2.1,12.9c-7.3,9.8-8.9,22.2-1.7,32.2
	c4.2,5.9,4.6,11.6,3.9,17.9c-0.5,4.5-1,9.1-2.1,13.6c-4.7,17.9-7,36-5.4,54.5c0.6,7,1.1,14.1,1.7,21.1c-0.8-0.6-1.3-1.3-1.5-2
	c-4.5-15.3-10-30.4-13.4-46c-4.6-21.7-7.6-43.6-11.3-65.5c2.1-1.2,4.5-2.2,6.3-3.8c18.8-16.1,21-50.4-8.2-61.2
	c-11.2-4.1-21.4-1.1-26.7,9.7c-6,12.1-7.4,25.1-2.6,38c3.6,9.8,10.8,16,21.4,17.6c1.9,0.3,3.8,0.4,5.7,0.7c-0.3,1.6-0.8,3-0.8,4.3
	c0,0.9,0.7,2.7,1.1,2.7c4.9,0.2,4.3,4.1,4.7,6.9c1.7,11.1,2.9,22.3,4.8,33.4c4.1,24.3,11.3,47.8,19.7,70.9c1,2.7,1.3,6,0.7,8.8
	c-2.2,11.8-4.8,23.4-2.6,35.5c0.4,1.9,0.5,3.9,0.8,6c-8.8-0.9-12.9,1.4-16.3,9.1c-1.1,2.5-2.3,5.1-2.7,7.8c-2.6,16-5.5,32-7.2,48.1
	c-1.4,13.1-0.8,26.5,3.1,39.3c2.1,6.9,5.1,13.9,9.1,19.9c4.9,7.4,12.3,6.8,17.2-0.8c1.5-2.4,2.9-5.2,3.4-8c1.2-7,2.2-14,2.7-21.1
	c1.2-17.9,7-34,18.2-48c7.6-9.5,16.4-10.1,25.5-2c1.2,1.1,2.4,2.3,3.6,3.4c4.2,3.8,8.9,5.9,14.4,3.1c4.5-2.2,6.8-7.6,6.1-14
	c-1.2-10-6-18.2-13-25c-8.9-8.5-19-11.7-30.9-6.5c-0.2,0.1-0.5-0.1-1.1-0.3c-6.7-17.9-10.4-37.5-26.2-52.1c2.8,0,4.4,0,6.8,0
	c-8.8-4.5-9.1-4.6-6.4-14c2.3-8,5.3-15.8,8.5-23.5c7.2-17.3,11.3-35.1,11.4-53.9c0-1.2,0.6-2.7,1.4-3.4c2.1-1.7,2.2-3.3,0.9-5.4
	c-0.8-1.2-1.3-2.6-2-3.9c16.9-5.6,24.6-17.7,20.4-32.1c-2-6.7-5.5-12.7-11.7-16.2c-8.3-4.7-17.1-4.1-26.1,0c0.5-2.5,0.4-5.8,1.2-6
	c4.5-1.3,3.2-4.7,3.4-8c1.5,0.6,2.8,1.1,4.1,1.5c10.8,3.6,24.4-1.3,30.4-11c6.9-11.2,3.8-32.6-6.2-41.3c-0.9-0.7-2.1-1.2-3.2-1.5
	c-1.5-0.4-3.1-0.2-4.5-0.8c-12-5.4-27.4,0.4-32.1,12.9C939.6,42.5,941.6,55.4,952.2,65.8z"/>
<path d="M575.4,472.3c-10.5,12.4-25.5,17.7-38.2,26.1c-5.6,3.7-8.7,8.1-9.7,14.6c-2.6,15.9-5.2,31.8-8.5,47.6
	c-2.9,13.7-9.1,26-19.7,35.5c-3.3,2.9-7.1,5.5-11,7.3c-11.1,5-21.8,0.3-26.5-11.1c-3.1-7.6-3.3-15.5-2.5-23.4
	c2.2-23.4,10.6-44.5,24.8-63.2c3.4-4.5,7.5-8.5,11.2-12.9c1.2-1.5,2-3.4,2.2-5.7c-3.4,2.8-6.5,6-10.2,8.3c-4.7,2.9-9.6,5.8-14.8,7.4
	c-10.2,3.3-20-0.8-25.2-10.3c-2.5-4.6-4.4-9.5-6.6-14.5c-0.7,1.1-1.5,2.6-2.4,4c-7.5,12.3-17.7,21.2-32.6,22.6
	c-15.2,1.5-26.7-5.4-35-17.6c-15.9-23.5-11.8-65.2,8.1-85.5c13.4-13.7,37-17,51.7-7.2c5.7,3.8,8.8,9.3,10.3,16
	c2.1,9.5,4.6,19,7,28.8c1.5-2.4,2.8-4.8,4.3-7c6.7-10,15-18,26.8-21.3c18.9-5.4,38.3,3.9,45.1,22.3c2.8,7.6,3.6,15.9,5.2,23.9
	c0.4,2.2,0.5,4.6,0.8,7c7.1-3.6,13.7-7.2,20.5-10.3c6.3-2.9,12.9-5.2,20.1-4.5c2.9,0.3,2.6-1.7,2.9-3.4c1.7-13.6,6.4-25.8,15.6-36.1
	c11.8-13.2,32.7-18.5,47.6-12c7.3,3.2,12.7,8.5,16,15.7c4.7,10.2,1.5,21.2-8,27.4c-7.7,5-16.4,6.6-25.3,7.8c-2.2,0.3-4.4,0.5-6.6,1
	c-7,1.7-10.5,8.3-8.1,15.2c1.1,3.1,3.7,4.3,7.5,2.5c4.3-2.1,8.4-4.9,12.4-7.6c3.2-2.1,6.1-4.9,9.4-6.8c7.9-4.6,14.6-0.9,14.8,8.3
	c0.4,12.2-4.3,21.7-15.4,27.4c-15.3,7.9-30.9,9.4-45.7-0.8c-4.3-3-7-8.3-10.5-12.7C576.4,474.4,576,473.5,575.4,472.3z M503.5,443
	c-10.4-3.5-24.9,7.4-26.1,19.1c-0.2,2.2,1,5.8,2.6,6.7c1.9,1,5.8,0.5,7.5-1C495.4,461.3,499.3,452.1,503.5,443z M496.6,536.4
	c-0.3-0.1-0.7-0.3-1-0.4c-1.3,2.1-2.8,4.1-3.8,6.3c-4.2,8.9-8.3,17.8-12.4,26.8c-0.6,1.2-1.1,2.8-0.9,4c0.4,2.1,1.5,4.1,2.3,6.1
	c1.7-1,4.1-1.5,4.9-3C493,563.9,496.6,550.6,496.6,536.4z M422.7,434.2c-6.7,4.1-13.8,19.2-12.3,25.7c0.3,1.4,2.2,3.6,3.2,3.5
	c2.1-0.2,5.1-1.1,5.9-2.6C423.6,452.5,423,443.5,422.7,434.2z M617.8,432.6c5.4,0.6,9.7-0.4,13.2-3.8c0.7-0.7,1.2-2.1,0.9-2.9
	c-0.3-0.6-1.8-1.1-2.8-1C624.1,425.1,620.3,427.3,617.8,432.6z"/>
<path d="M174.8,431.7c4.3-7,8-14.6,13.1-21c11.2-13.8,32.2-19.5,47.1-13.5c8.5,3.5,14.7,9.4,17.8,18.2c3.6,10.2,0.1,19.9-9.1,25.6
	c-7.6,4.8-16.2,6.4-24.9,7.6c-2.2,0.3-4.4,0.5-6.6,1c-6.9,1.7-10.3,7.9-8.3,14.8c1,3.5,3.6,4.8,7.7,2.9c4.1-1.9,7.9-4.6,11.7-7.1
	c2.9-1.9,5.5-4.3,8.3-6.3c3.8-2.6,8.1-4.3,12.5-1.7c4.3,2.5,4.6,7.1,4.3,11.5c-0.7,11.4-5.7,20.2-16.3,25.3c-15.7,7.6-31.4,9-46-2
	c-4.6-3.4-7.5-8.9-10.9-13c-3.2,4.2-6.2,9.7-10.6,13.8c-17.8,17-39.1,20.9-62.2,14.6c-28.9-7.9-48.3-33.9-48.1-64.7
	c0.3-42.1,20.3-72.9,56.2-93.8c4.8-2.8,11-3.8,16.6-4.7c3-0.5,6.7,0.6,9.6,2c9.5,4.6,19.3,20.8,10.7,32.8c-3.1,4.3-7.6,6.4-12.3,8.1
	c-10.2,3.5-19.4,8.6-26.6,16.7c-12.5,14-18,29.9-11.7,48.4c4.3,12.5,16.3,19.7,29.1,18.1c4-0.5,7.5-1.9,9.3-6c1.3-3,0.6-5.1-2.4-6.4
	c-0.6-0.3-1.3-0.6-1.9-0.8c-10.8-2.4-12.6-10.6-12.4-19c0.2-10.5,5.7-17.5,14.7-19.8c12.9-3.4,31.7,4.1,39.7,15.8
	C173.7,430,174.4,431,174.8,431.7z M218.3,432.3c7,1.6,13.4-1.8,13.3-7C225.2,424,220.1,426.7,218.3,432.3z"/>
<path d="M815.9,482.8c-8,5.9-15,11.6-22.6,16.4c-3.9,2.5-8.6,3.9-13.1,4.9c-5.1,1.1-9.7-1.2-11.9-5.8c-2.5-5.3-4.4-11.1-5.5-16.9
	c-3-15.9-2.2-31.9,0.1-47.8c2.8-19.9,6.3-39.8,10-59.5c1.2-6.2,4-12.1,6.8-17.8c3.1-6.4,9.7-9.3,15.9-8.1
	c6.6,1.3,11.9,6.4,12.1,13.5c0.3,9-0.4,18-1.2,26.9c-1.3,13.7-3.1,27.3-4.5,41c-1,9.9-1.7,19.9-2.5,29.9c-0.1,0.8,0,1.6,0,3.3
	c1.3-1.1,2.2-1.8,3.1-2.5c4.9-3.6,9.6-7.7,14.9-10.5c9.6-4.9,16.3-2.5,22.2,6.8c0.2,0.3,0.6,0.5,1.1,1c0.4-4.7,0.5-9.3,1.2-13.7
	c2.8-17.4,9.6-32.5,25.2-42.2c14.3-8.9,31.8-9.1,43.6-0.6c9.5,6.9,14.1,18.1,11.2,27.5c-2,6.6-6.4,11.7-12.8,14
	c-7.1,2.6-14.7,4.1-22,5.9c-2,0.5-4.1,0.5-6.2,1c-6.4,1.5-9.2,5.6-8.8,12.2c0.3,5.6,3.2,7.7,8.3,5.4c4.5-2.1,8.6-5.1,12.7-7.8
	c3.1-2.1,5.9-4.7,9.1-6.6c7.6-4.4,14.4-0.5,14.6,8.3c0.3,12.5-4.6,22.1-16,27.8c-15.2,7.5-30.4,8.9-45.1-1c-3.9-2.6-6.7-6.8-10-10.1
	c0.5,11.6,1,23.7,1.4,35.7c0.1,4.8,0.1,9.7-0.5,14.5c-0.4,3.7-2.3,6.9-6.4,8c-4.1,1-6.9-1.3-9.3-4.1c-6-7.1-6.5-16-7.7-24.6
	c-0.8-6-2.2-12-3.8-17.8C819.1,486.9,817.2,484.9,815.9,482.8z M886.7,432c0.3,0.6,0.5,1.2,0.8,1.7c3.8-1.4,7.6-2.5,11.3-4.2
	c0.9-0.4,1.2-2.3,1.7-3.5c-1.2-0.4-2.4-1.3-3.6-1.1C892.2,425.4,888.6,427.5,886.7,432z"/>
<path d="M282,418.3c0-7.1,0.1-14.2,0-21.2c0-2.2-0.4-4.4-0.8-6.6c-0.6-3.8-2.7-5.7-6.7-6.1c-5-0.5-9.9-1.5-14.8-2.4
	c-1.6-0.3-3.3-0.7-4.8-1.4c-5.5-2.3-10.3-5.5-10.4-12.2c0-6.5,4.1-10.4,9.7-12.7c3.2-1.3,6.7-1.8,10-2.7c5.6-1.4,11.3-2.8,16.9-4.1
	c2.7-0.6,3.9-2.2,4.3-4.8c1-6.7,1.7-13.5,3.1-20.1c1.5-7.2,4.4-13.8,10.3-18.5c4.3-3.4,8.1-3.4,10.9,1.3c2.8,4.6,4.8,9.7,6.4,14.8
	c2.2,6.9,3.8,13.9,5.4,21c1,4.5,3.5,6.3,8.2,6.3c9.6,0,19.2,1,27.9,5.7c3.3,1.8,6.6,3.8,9.2,6.3c5.9,5.8,5.2,13.6-2,17.4
	c-5.5,2.9-11.8,4.6-18,6.1c-5.9,1.4-12.1,1.9-18.1,2.4c-3.7,0.3-4.5,2.2-4.5,5.5c-0.4,20.1-0.3,40.3-1.7,60.4
	c-1.3,18.9-3.9,37.8-6.7,56.6c-0.7,4.6-3.9,9.2-7.1,12.9c-4.5,5.1-10.9,4.3-13.6-1.9c-3.2-7.3-5.6-15.1-7-22.9
	C283.8,471,282,444.7,282,418.3z"/>
<path d="M771,368.6c0,5.6-3.2,9.1-7.4,10.5c-7.4,2.5-15.1,4.2-22.8,5.9c-3.8,0.9-7.7,1.3-11.5,1.5c-4,0.2-4.8,2.5-4.8,5.7
	c0,8.6,0,17.2-0.1,25.9c-0.5,28.6-1.9,57.2-6.6,85.6c-1,6.2-2.8,12.2-7.2,17c-5.8,6.3-12.7,5.9-15.8-2.1c-3.2-8.3-5.5-17.2-6.8-26
	c-4.6-30-7-60.2-5.8-90.6c0.2-4.1-0.4-8.3-0.9-12.4c-0.4-3.4-2.6-4.9-5.9-5.3c-5.9-0.9-11.8-1.7-17.6-3.2c-8-2-13.1-7.4-13-13.3
	c0.1-5.8,5.7-11.8,13.4-13.6c7.3-1.8,14.6-3.5,21.9-4.9c4.6-0.9,5.8-3.7,6.3-7.8c1-7.5,1.9-15.2,4.2-22.4c1.6-4.9,5-9.6,8.6-13.4
	c4.2-4.5,8.4-3.9,11.6,1.5c2.7,4.6,4.6,9.8,6.2,14.9c2.2,7.1,4,14.5,5.7,21.7c0.8,3.5,2.9,4.5,6.3,4.7c10.2,0.4,20.3,1,29.6,5.9
	c5.1,2.7,10,5.6,12.1,11.4C770.8,366.8,770.9,367.9,771,368.6z"/>
<path d="M952.2,65.8c-10.7-10.3-12.6-23.2-7.2-37.3c4.7-12.4,20.1-18.3,32.1-12.9c1.3,0.6,3,0.4,4.5,0.8c1.1,0.3,2.3,0.8,3.2,1.5
	c9.9,8.7,13.1,30.1,6.2,41.3c-6,9.6-19.6,14.6-30.4,11c-1.3-0.4-2.6-0.9-4.1-1.5c-0.2,3.3,1.1,6.8-3.4,8c-0.8,0.2-0.8,3.5-1.2,6
	c9.1-4.1,17.8-4.8,26.1,0c6.2,3.5,9.7,9.5,11.7,16.2c4.2,14.3-3.5,26.4-20.4,32.1c0.7,1.3,1.3,2.7,2,3.9c1.3,2.1,1.2,3.7-0.9,5.4
	c-0.9,0.7-1.4,2.2-1.4,3.4c-0.2,18.7-4.2,36.6-11.4,53.9c-3.2,7.7-6.1,15.5-8.5,23.5c-2.7,9.3-2.4,9.4,6.4,14c-2.4,0-4,0-6.8,0
	c15.8,14.7,19.5,34.3,26.2,52.1c0.6,0.2,0.9,0.4,1.1,0.3c11.9-5.3,22-2,30.9,6.5c7.1,6.8,11.9,15,13,25c0.8,6.4-1.6,11.8-6.1,14
	c-5.6,2.8-10.2,0.7-14.4-3.1c-1.2-1.1-2.4-2.3-3.6-3.4c-9.1-8.1-17.8-7.5-25.5,2c-11.2,14-16.9,30.1-18.2,48
	c-0.5,7.1-1.5,14.1-2.7,21.1c-0.5,2.8-1.9,5.6-3.4,8c-4.8,7.5-12.3,8.2-17.2,0.8c-4-6-6.9-13-9.1-19.9c-3.9-12.8-4.5-26.1-3.1-39.3
	c1.7-16.1,4.6-32.1,7.2-48.1c0.4-2.7,1.6-5.3,2.7-7.8c3.4-7.6,7.5-9.9,16.3-9.1c-0.3-2.1-0.5-4.1-0.8-6c-2.2-12.1,0.4-23.7,2.6-35.5
	c0.5-2.8,0.2-6.1-0.7-8.8c-8.4-23.1-15.6-46.6-19.7-70.9c-1.9-11.1-3-22.3-4.8-33.4c-0.4-2.8,0.1-6.8-4.7-6.9
	c-0.4,0-1.1-1.8-1.1-2.7c0-1.4,0.5-2.7,0.8-4.3c-2-0.2-3.9-0.4-5.7-0.7c-10.6-1.6-17.8-7.8-21.4-17.6c-4.8-12.9-3.4-25.9,2.6-38
	c5.3-10.8,15.6-13.8,26.7-9.7c29.1,10.8,27,45,8.2,61.2c-1.8,1.6-4.2,2.6-6.3,3.8c3.7,21.9,6.7,43.9,11.3,65.5
	c3.3,15.6,8.8,30.7,13.4,46c0.2,0.7,0.6,1.4,1.5,2c-0.6-7-1.1-14.1-1.7-21.1c-1.6-18.5,0.7-36.6,5.4-54.5c1.2-4.4,1.7-9,2.1-13.6
	c0.7-6.3,0.3-12-3.9-17.9c-7.1-10-5.6-22.5,1.7-32.2c2.9-3.9,2.6-8.3,2.1-12.9C950.1,71.4,951.4,68.9,952.2,65.8z M935.6,78.9
	c0.2-6.3-1.3-12.1-4.8-17.4c-5.9-8.7-14.7-11.3-24.3-10.8c-8.3,0.5-13.1,6.7-16.4,13.7c-5.3,11.3-1,29.8,8.6,38.3
	c9.1,8,20.2,7.7,28.6-1C933.4,95.5,935.4,87.5,935.6,78.9z M945.2,42.9c0.3,2.1,0.4,4.2,0.9,6.2c2.2,8.7,9.3,12.4,16.5,15.7
	c7.3,3.3,14.3,2,20.1-3.4c9-8.3,10.2-18.8,7.1-29.9c-3.8-13.9-21-20.6-33.1-13c-2,1.3-3.3,3.8-4.9,5.8
	C947.5,29.8,945.2,35.9,945.2,42.9z M953.5,127.5c-1.3,8.5-1.9,17.2-4,25.6c-4.3,16.9-6,33.8-4.7,51.2c0.4,5.6,1,11.3,1.5,17.2
	c3.6-9.3,6.8-18.2,10.4-26.9c6.5-16,10-32.6,10.3-49.8c0-1.4-0.7-2.7-1.1-4.1c-0.4-1.4-1.3-2.9-1.1-4.2c0.2-1.9,1.1-3.6,1.6-5.2
	C961.8,130,957.4,128.7,953.5,127.5z M948.2,237.5c0.6,4.3,1.2,7.7,1.7,11.2c-0.4,0.1-0.9,0.1-1.3,0.2c-0.6-2.2-1.2-4.4-1.8-6.6
	c-1.7,6.7-3.3,13.4-3.6,20.1c-0.4,9.7-0.1,19.4,6.7,27.5c1.9,2.2,2.7,5.4,3.8,8.3c1,2.7,1.7,5.5,2.4,7.7c5.4-5.4,10.8-10.7,16-16.1
	c0.6-0.7,0.7-2.3,0.4-3.3c-2.8-8.3-5.6-16.6-8.6-24.7C960.5,252.8,956,244.6,948.2,237.5z M951.4,102.4c0.1,0,0.2,0,0.3,0
	c0.2,4.6,0.3,9.2,0.7,13.7c0.1,1.5,1,3.3,2.1,4.1c10.4,7.9,28.6,1.8,31.5-11c1.9-8.5-0.2-16.8-7.1-22.7c-6.6-5.6-14.5-6.2-22.6-2.9
	c-3.4,1.4-5.3,3.5-4.9,7.5C951.7,94.9,951.4,98.7,951.4,102.4z M952.8,121.9c1.6,4.7,9.1,7.7,16.2,6.9c9.1-1.1,18-9.2,18.6-17.1
	C979.9,122.7,968.9,131.8,952.8,121.9z M949.9,90.8c-6.3,7.9-5.6,21.3,0,24.7C949.9,107.4,949.9,99.1,949.9,90.8z M949.7,59.2
	c6.9,10.2,19.3,13.3,29.2,7.3C967.3,71.3,958.3,66.1,949.7,59.2z M908.2,110.2c-9.3-2.5-14.9-9.2-19.1-17.4
	C890.8,102,899,109.4,908.2,110.2z M992,54.3c-0.2-0.2-0.5-0.5-0.7-0.7c-2.8,3.6-5.6,7.3-8.5,10.9c0.2,0.2,0.5,0.4,0.7,0.6
	C986.4,61.5,989.2,57.9,992,54.3z"/>
<path class="st0" d="M503.5,443c-4.2,9.1-8.1,18.3-16,24.8c-1.7,1.4-5.6,1.9-7.5,1c-1.6-0.8-2.9-4.5-2.6-6.7
	C478.7,450.4,493.1,439.5,503.5,443z"/>
<path class="st0" d="M496.6,536.4c0,14.2-3.5,27.6-10.9,39.8c-0.9,1.5-3.3,2-4.9,3c-0.8-2-1.9-4-2.3-6.1c-0.2-1.2,0.3-2.8,0.9-4
	c4.1-9,8.2-17.9,12.4-26.8c1.1-2.2,2.5-4.2,3.8-6.3C495.9,536.1,496.2,536.2,496.6,536.4z"/>
<path class="st0" d="M422.7,434.2c0.3,9.3,0.9,18.3-3.3,26.6c-0.8,1.5-3.8,2.5-5.9,2.6c-1,0.1-2.8-2.1-3.2-3.5
	C408.9,453.3,416,438.3,422.7,434.2z"/>
<path class="st0" d="M617.8,432.6c2.4-5.3,6.3-7.5,11.3-7.8c1-0.1,2.5,0.4,2.8,1c0.3,0.7-0.2,2.2-0.9,2.9
	C627.6,432.2,623.2,433.2,617.8,432.6z"/>
<path class="st0" d="M218.3,432.3c1.8-5.6,6.9-8.3,13.3-7C231.7,430.5,225.3,433.9,218.3,432.3z"/>
<path class="st0" d="M886.7,432c1.9-4.4,5.5-6.6,10.2-7.1c1.1-0.1,2.4,0.7,3.6,1.1c-0.6,1.2-0.8,3.1-1.7,3.5
	c-3.6,1.6-7.5,2.8-11.3,4.2C887.2,433.1,887,432.5,886.7,432z"/>
<path class="st0" d="M935.6,78.9c-0.2,8.6-2.2,16.5-8.3,22.9c-8.4,8.7-19.6,9-28.6,1c-9.7-8.5-13.9-27.1-8.6-38.3
	c3.3-7.1,8.1-13.2,16.4-13.7c9.6-0.6,18.5,2.1,24.3,10.8C934.3,66.8,935.8,72.6,935.6,78.9z M889.8,77.6c0.6,2.7,0.9,5.5,2,7.9
	c0.7,1.5,2.6,2.4,4,3.6c0.6-1.6,1.7-3.2,1.6-4.7c-0.6-7.3-0.1-14.3,3.5-20.9c0.5-0.9-0.3-2.5-0.4-3.7c-1.2,0.4-2.9,0.4-3.5,1.2
	C893,65.7,890.2,71,889.8,77.6z"/>
<path class="st0" d="M945.2,42.9c0.1-7,2.4-13.1,6.6-18.5c1.6-2,2.8-4.6,4.9-5.8c12.1-7.6,29.3-0.9,33.1,13
	c3.1,11.1,1.9,21.6-7.1,29.9c-5.8,5.4-12.8,6.7-20.1,3.4c-7.2-3.3-14.3-7-16.5-15.7C945.5,47.1,945.4,44.9,945.2,42.9z M964.7,20
	c-7.1,1.7-16,12.1-15.9,19c0,1.4,1.6,2.8,2.4,4.2c1.2-0.9,2.8-1.5,3.6-2.7c0.9-1.3,0.9-3.2,1.7-4.6c1.4-2.5,2.7-5.3,4.8-7
	C964.2,26.5,965.8,24.1,964.7,20z"/>
<path class="st0" d="M953.5,127.5c4,1.2,8.3,2.5,12.8,3.9c-0.5,1.5-1.4,3.3-1.6,5.2c-0.1,1.4,0.7,2.8,1.1,4.2
	c0.4,1.4,1.1,2.7,1.1,4.1c-0.3,17.2-3.8,33.8-10.3,49.8c-3.6,8.7-6.8,17.5-10.4,26.9c-0.5-6-1.1-11.6-1.5-17.2
	c-1.3-17.3,0.4-34.3,4.7-51.2C951.6,144.7,952.2,136,953.5,127.5z"/>
<path class="st0" d="M948.2,237.5c7.8,7.1,12.3,15.3,15.7,24.2c3.1,8.2,5.9,16.4,8.6,24.7c0.3,1,0.2,2.7-0.4,3.3
	c-5.2,5.5-10.6,10.7-16,16.1c-0.7-2.2-1.4-5-2.4-7.7c-1.1-2.8-1.9-6-3.8-8.3c-6.8-8.2-7.1-17.9-6.7-27.5c0.3-6.7,1.8-13.4,3.6-20.1
	c0.6,2.2,1.2,4.4,1.8,6.6c0.4-0.1,0.9-0.1,1.3-0.2C949.3,245.2,948.8,241.8,948.2,237.5z"/>
<path class="st0" d="M951.4,102.4c0-3.7,0.3-7.5-0.1-11.2c-0.4-4.1,1.5-6.2,4.9-7.5c8.1-3.3,16-2.8,22.6,2.9
	c6.9,5.8,9,14.2,7.1,22.7c-2.9,12.9-21.1,19-31.5,11c-1.1-0.9-2-2.7-2.1-4.1c-0.4-4.5-0.5-9.1-0.7-13.7
	C951.6,102.4,951.5,102.4,951.4,102.4z M964.3,86.5c8.9,2.4,8.8,8.7,9,14.9c0,1.8-0.1,3.6,0.3,5.4c0.2,1.1,1.1,2,1.7,3
	c1.1-0.7,2.3-1.2,3.2-2.1c0.6-0.6,0.9-1.7,1-2.7c0.7-6.7-1-12.7-5.2-17.9C972.1,84.4,969,83.6,964.3,86.5z"/>
<path class="st0" d="M952.8,121.9c16.1,9.9,27.1,0.8,34.8-10.2c-0.6,7.9-9.5,16-18.6,17.1C961.9,129.6,954.4,126.6,952.8,121.9z"/>
<path class="st0" d="M949.9,90.8c0,8.3,0,16.6,0,24.7C944.3,112.1,943.7,98.8,949.9,90.8z"/>
<path class="st0" d="M949.7,59.2c8.7,6.8,17.6,12,29.2,7.3C969,72.5,956.5,69.4,949.7,59.2z"/>
<path class="st0" d="M908.2,110.2c-9.2-0.8-17.4-8.3-19.1-17.4C893.2,101.1,898.9,107.7,908.2,110.2z"/>
<path class="st0" d="M992,54.3c-2.8,3.6-5.7,7.2-8.5,10.8c-0.2-0.2-0.5-0.4-0.7-0.6c2.8-3.6,5.6-7.3,8.5-10.9
	C991.5,53.9,991.8,54.1,992,54.3z"/>
<path d="M889.8,77.6c0.5-6.5,3.3-11.9,7.2-16.6c0.7-0.8,2.3-0.8,3.5-1.2c0.2,1.3,0.9,2.8,0.4,3.7c-3.6,6.6-4.1,13.6-3.5,20.9
	c0.1,1.5-1.1,3.1-1.6,4.7c-1.4-1.2-3.3-2.1-4-3.6C890.7,83,890.4,80.2,889.8,77.6z M899.4,62.1c-7.8,6.4-9.7,19-3.6,24.8
	C895,78,894.9,69.7,899.4,62.1z"/>
<path d="M964.7,20c1.1,4-0.5,6.5-3.3,8.9c-2.1,1.8-3.4,4.6-4.8,7c-0.8,1.4-0.8,3.3-1.7,4.6c-0.8,1.2-2.4,1.8-3.6,2.7
	c-0.9-1.4-2.4-2.8-2.4-4.2C948.7,32.1,957.6,21.7,964.7,20z M962.8,22.8c-7.7,3.6-13.9,14.5-11.2,18.1
	C955.2,35.1,958.9,29.2,962.8,22.8z"/>
<path d="M964.3,86.5c4.6-2.9,7.7-2.1,10,0.7c4.2,5.1,5.9,11.2,5.2,17.9c-0.1,0.9-0.4,2-1,2.7c-0.9,0.9-2.1,1.4-3.2,2.1
	c-0.6-1-1.5-1.9-1.7-3c-0.3-1.7-0.2-3.6-0.3-5.4C973.2,95.2,973.2,88.9,964.3,86.5z M976.1,107.5c3.4-4.8,1.7-14.1-2.4-17.9
	C974.3,94.9,975.2,101.2,976.1,107.5z"/>
<path class="st0" d="M899.4,62.1c-4.5,7.6-4.4,15.9-3.6,24.8C889.6,81,891.6,68.5,899.4,62.1z"/>
<path class="st0" d="M962.8,22.8c-3.9,6.4-7.6,12.3-11.2,18.1C948.9,37.3,955.1,26.4,962.8,22.8z"/>
<path class="st0" d="M976.1,107.5c-0.9-6.3-1.7-12.6-2.4-17.9C977.7,93.3,979.4,102.7,976.1,107.5z"/>
</svg>
